PathFileType	4	(X/Y/Z)	C:/Users/opensim2020/Desktop/walking_exp_matlab/subject06_walking13_straight_02.trc	
DataRate	CameraRate	NumFrames	NumMarkers	Units	OrigDataRate	OrigDataStartFrame	OrigNumFrames	
100.00	100.00	4	50	mm	100.00	1686	199	
Frame#	Time	LFHD			RFHD			LBHD			RBHD			C7			T10			CLAV			STRN			RBAK			LSHO			LUPA			LELB			LFRM			LWRA			LWRB			LFIN			RSHO			RUPA			RELB			RFRM			RWRA			RWRB			RFIN			LASI			RASI			LPSI			RPSI			LTHI			LKNE			LTIB			LANK			LHEE			LTOE			RTHI			RKNE			RTIB			RANK			RHEE			RTOE			*39			*40			*41			*42			*43			*44			*45			*46			*47			*48			*49			
		X1	Y1	Z1	X2	Y2	Z2	X3	Y3	Z3	X4	Y4	Z4	X5	Y5	Z5	X6	Y6	Z6	X7	Y7	Z7	X8	Y8	Z8	X9	Y9	Z9	X10	Y10	Z10	X11	Y11	Z11	X12	Y12	Z12	X13	Y13	Z13	X14	Y14	Z14	X15	Y15	Z15	X16	Y16	Z16	X17	Y17	Z17	X18	Y18	Z18	X19	Y19	Z19	X20	Y20	Z20	X21	Y21	Z21	X22	Y22	Z22	X23	Y23	Z23	X24	Y24	Z24	X25	Y25	Z25	X26	Y26	Z26	X27	Y27	Z27	X28	Y28	Z28	X29	Y29	Z29	X30	Y30	Z30	X31	Y31	Z31	X32	Y32	Z32	X33	Y33	Z33	X34	Y34	Z34	X35	Y35	Z35	X36	Y36	Z36	X37	Y37	Z37	X38	Y38	Z38	X39	Y39	Z39	X40	Y40	Z40	X41	Y41	Z41	X42	Y42	Z42	X43	Y43	Z43	X44	Y44	Z44	X45	Y45	Z45	X46	Y46	Z46	X47	Y47	Z47	X48	Y48	Z48	X49	Y49	Z49	X50	Y50	Z50	

150	1.490	1511.36499	-563.37122	1654.26294	1379.47424	-556.24152	1642.59045	1517.93506	-425.61115	1611.42468	1388.93323	-420.76797	1605.30420	1460.81958	-411.65750	1446.05127	1446.06470	-389.55124	1113.65955	1458.33740	-523.16730	1371.20972	1462.63269	-571.04517	1197.30750	1379.56360	-341.78787	1270.83411	1621.16577	-468.19171	1402.27405	1694.27283	-438.84836	1203.58789	1702.82605	-413.82736	1093.64233	1719.50208	-410.77734	942.56189	1663.77100	-433.93774	819.29938	1715.10718	-385.51807	826.14386	1703.55054	-403.23419	736.90173	1298.18408	-473.29623	1401.00378	1210.19543	-450.21121	1200.75916	1198.64221	-473.98184	1081.87817	1181.90015	-528.11804	975.94391	1209.03430	-643.22064	879.18793	1180.51196	-589.20087	853.09784	1172.22522	-653.19489	801.17383	1555.36340	-576.60559	963.57440	1334.57678	-569.92377	959.79321	1529.17175	-415.71426	984.44537	1361.19897	-419.94531	980.61884	1614.72327	-559.47919	652.11346	1583.20239	-598.58588	495.36804	1566.73425	-584.72839	238.23932	1519.96606	-588.11359	69.32386	1472.52429	-549.16949	56.23621	1518.70166	-732.98590	42.97187	1285.45801	-522.31848	615.85858	1301.73218	-529.63092	489.01657	1312.39233	-331.59598	323.99414	1357.76038	-181.43132	218.53949	1403.70703	-148.90665	243.93588	1371.02747	-203.23569	59.31529	1455.99512	-464.16843	1700.78796																														 
151	1.500	1511.30786	-573.83075	1655.48486	1379.40930	-566.59534	1643.81250	1517.94922	-436.13678	1612.55371	1388.99341	-431.29312	1606.39319	1460.73633	-422.72073	1447.14514	1447.28748	-400.47919	1114.55322	1458.42065	-533.73535	1372.38782	1463.15259	-581.65369	1198.37158	1380.88782	-352.19229	1271.53967	1621.53699	-479.51611	1403.59717	1695.29358	-453.02832	1204.44104	1704.31616	-429.66849	1094.06555	1721.01306	-429.43683	942.95343	1665.44067	-454.60114	820.24011	1716.95435	-406.18484	826.21387	1705.36670	-425.65799	737.29590	1298.28137	-483.44440	1401.35583	1210.66699	-459.69275	1200.91321	1198.95984	-482.33963	1081.47510	1182.21265	-534.07135	973.95917	1208.69373	-646.15302	873.61456	1180.10376	-591.29828	849.35889	1171.83215	-653.61206	795.34100	1556.44824	-587.63831	964.21497	1335.35046	-580.68732	960.95062	1530.39600	-426.74100	985.19086	1362.31079	-430.45621	981.20087	1614.88574	-568.06287	652.15515	1583.31250	-605.69733	495.17993	1566.13843	-587.06122	238.59462	1519.49182	-588.40155	69.55759	1472.41956	-549.25928	56.38109	1518.66162	-733.37738	42.67865	1286.14368	-539.21045	617.19360	1302.42590	-549.97638	490.67862	1311.11584	-353.96786	325.49951	1356.31506	-200.90401	223.76221	1402.71143	-168.52989	249.21243	1366.77759	-220.03667	64.13906	1455.99963	-474.48920	1701.93811																														 
152	1.510	1511.12842	-584.24091	1656.67053	1379.23962	-576.92523	1644.91614	1517.92029	-446.60065	1613.64819	1388.99780	-441.62625	1607.44177	1461.34338	-433.09042	1448.40454	1448.64185	-411.10663	1115.45959	1458.46899	-544.21753	1373.42444	1463.68579	-592.24597	1199.49756	1382.48486	-362.42279	1272.25684	1621.84033	-490.68829	1404.88525	1696.20886	-467.22107	1205.19055	1705.77954	-445.77118	1094.47070	1722.51428	-448.50827	943.42194	1666.62756	-475.46176	821.19440	1718.64392	-427.33951	826.18445	1707.19238	-448.67300	737.82819	1298.26697	-493.57693	1401.70959	1211.11096	-468.67075	1200.84302	1199.33960	-490.67279	1081.01221	1182.58752	-539.34271	972.01208	1208.11218	-648.90930	868.22949	1180.40759	-592.54688	845.56818	1171.50464	-653.46375	789.63141	1557.36865	-598.63922	964.89703	1336.09973	-591.41254	962.21246	1531.53015	-437.66907	985.94757	1363.42053	-440.97711	981.90955	1614.72339	-576.60162	652.40222	1583.48389	-612.60333	495.13055	1565.88220	-589.16571	238.92465	1519.11914	-588.77710	69.73697	1472.29602	-549.46423	56.55982	1518.71753	-733.81238	42.45713	1286.81824	-555.91815	618.67944	1303.08728	-570.15179	492.67517	1310.19690	-375.64554	326.65021	1355.42212	-220.23460	228.39520	1402.07349	-186.82716	252.42198	1362.09607	-242.85329	69.66010	1455.91333	-484.93466	1703.05200																														 
153	1.520	1510.77576	-594.65051	1657.73315	1378.91455	-587.18103	1645.92468	1517.76611	-457.09064	1614.65845	1388.88391	-452.01059	1608.24902	1461.76892	-443.55078	1449.45508	1449.97998	-421.74152	1116.33826	1458.53003	-554.77472	1374.37463	1464.17676	-602.66742	1200.50183	1384.00757	-372.64008	1272.97339	1622.04492	-501.86850	1406.02405	1697.09094	-481.44888	1205.98901	1707.11792	-462.05884	1094.89380	1723.96692	-467.87762	943.96338	1668.03601	-496.77731	822.31622	1720.46252	-448.99591	826.42767	1709.02942	-472.24149	738.53180	1298.33704	-503.75931	1401.92334	1211.94897	-477.59338	1200.87280	1199.97668	-498.79587	1080.63831	1182.96899	-544.66333	970.19208	1207.79004	-650.90729	862.96606	1180.30554	-593.71350	842.09045	1171.25378	-652.71259	784.15137	1558.32837	-609.83362	965.91730	1336.76318	-602.08032	963.58167	1532.53418	-448.46698	986.74701	1364.42529	-451.46542	982.67957	1614.66309	-585.37781	652.93842	1583.68445	-618.74896	494.93466	1565.95923	-591.42523	239.22804	1518.84668	-589.12665	69.89401	1472.14160	-549.57538	56.79755	1518.43896	-734.13495	42.27225	1287.40234	-572.38312	620.49225	1303.70007	-589.81042	494.81479	1309.79395	-396.17053	328.87662	1354.67236	-240.38078	231.89113	1401.37927	-205.21437	253.69379	1357.36023	-268.95770	74.29488	1455.64380	-495.29425	1703.96399																														 
